<?xml version="1.0" encoding="UTF-8"?>
<svg xmlns="http://www.w3.org/2000/svg" xmlns:xlink="http://www.w3.org/1999/xlink" width="597pt" height="843pt" viewBox="0 0 597 843" version="1.1">
<g id="surface1">
<path style="fill:none;stroke-width:2.16;stroke-linecap:butt;stroke-linejoin:miter;stroke:rgb(13.699341%,12.199402%,12.5%);stroke-opacity:1;stroke-miterlimit:2.61313;" d="M 10 8428.90625 L 5962.773438 8428.90625 L 5962.773438 10 L 10 10 Z M 10 8428.90625 " transform="matrix(0.1,0,0,-0.1,0,843)"/>
<path style=" stroke:none;fill-rule:evenodd;fill:rgb(8.599854%,47.099304%,23.498535%);fill-opacity:1;" d="M 421.347656 467.90625 C 428.25 453.101563 464.097656 456.867188 460.71875 477.667969 C 447.859375 487.1875 424.617188 478.722656 421.347656 467.90625 Z M 372.710938 462.050781 C 374.617188 447.1875 420.699219 444.398438 421.347656 462.050781 C 413.308594 472.753906 382.839844 467.285156 372.710938 462.050781 Z M 344.917969 366.390625 C 343.460938 353.402344 363.796875 352.972656 375.027344 356.632813 C 374.789063 362.6875 382.316406 362.203125 379.65625 370.296875 C 369.960938 374.402344 349.558594 372.839844 344.917969 366.390625 Z M 314.816406 362.484375 C 315.269531 352.261719 333.308594 339.8125 340.289063 352.726563 C 339.90625 362.167969 320.867188 364.085938 314.816406 362.484375 Z M 319.449219 426.910156 C 305.320313 426.460938 296.179688 421.796875 293.96875 411.292969 C 304.570313 394.324219 328.488281 410.332031 319.449219 426.910156 Z M 284.710938 467.90625 C 298.769531 468.421875 307.589844 473.351563 307.867188 485.476563 C 294.699219 496.753906 273.6875 482.417969 284.710938 467.90625 Z M 273.128906 401.53125 C 272.339844 394.324219 287.199219 394.441406 291.65625 397.628906 C 291.640625 402.8125 292.527344 408.777344 289.339844 411.292969 C 279.15625 412.066406 273.65625 408.894531 273.128906 401.53125 Z M 266.1875 491.332031 C 254.378906 492.660156 255.167969 475.707031 259.238281 469.859375 L 266.1875 469.859375 C 269.707031 476.027344 277.988281 488.742188 266.1875 491.332031 Z M 238.398438 495.234375 C 226.039063 488.730469 217.46875 479.039063 215.238281 464.003906 C 237.867188 455.355469 253.898438 482.335938 238.398438 495.234375 Z M 166.601563 444.480469 C 164.28125 441.886719 164.40625 437.21875 159.65625 436.671875 C 169.257813 427.183594 196.886719 424.726563 212.917969 426.910156 C 209.808594 443.15625 188.089844 443.71875 166.601563 444.480469 Z M 217.546875 372.25 C 213.929688 389.90625 179.539063 393.816406 180.496094 370.296875 C 190.6875 363.578125 213.257813 358.101563 217.546875 372.25 Z M 245.339844 356.628906 C 248.46875 372.222656 222.328125 377.601563 217.546875 364.441406 C 215.921875 353.304688 236.40625 352.605469 245.339844 356.628906 Z M 249.96875 301.96875 C 246.769531 308.378906 242.519531 313.90625 231.449219 313.683594 C 226.910156 308.300781 243.167969 297.792969 249.96875 301.96875 Z M 263.871094 415.195313 C 252.839844 416.035156 246.546875 412.875 240.707031 409.339844 C 239.019531 404.015625 245.308594 405.410156 245.339844 401.535156 C 254.550781 403.527344 263.109375 406.078125 263.871094 415.195313 Z M 268.5 321.492188 C 266.109375 338.351563 251.117188 344.585938 231.449219 346.871094 C 235.140625 332.175781 250.859375 318.003906 268.5 321.492188 Z M 303.238281 309.777344 C 305.117188 323.53125 285.429688 327.988281 273.128906 323.445313 C 274.109375 311.253906 287.457031 309.488281 303.238281 309.777344 Z M 310.191406 348.820313 C 312.710938 363.726563 287.488281 364.261719 275.449219 360.535156 C 278.949219 350.703125 296.707031 343.886719 310.191406 348.820313 Z M 335.65625 311.730469 C 336.878906 321.976563 316.867188 321.226563 312.496094 315.636719 C 312.269531 306.226563 330.609375 305.574219 335.65625 311.730469 Z M 358.820313 321.492188 C 349.507813 322.835938 345.597656 319.621094 337.976563 319.539063 C 337.109375 309.726563 363.136719 307.769531 358.820313 321.492188 Z M 430.609375 387.867188 C 425.027344 395.808594 399.917969 391.710938 400.496094 382.011719 C 410.179688 374.386719 424.589844 381.273438 430.609375 387.867188 Z M 458.398438 487.429688 C 481.519531 470.550781 506.777344 494.308594 539.449219 485.476563 C 539.308594 471.808594 520.816406 465.71875 509.347656 458.144531 C 488.988281 444.710938 470.117188 433.59375 437.558594 432.769531 C 461.246094 427.359375 496.738281 431.898438 513.976563 421.054688 C 493.738281 408.179688 457.308594 408.960938 435.238281 397.628906 C 445.609375 387.046875 475.769531 403.171875 502.398438 397.628906 C 475.609375 370.097656 412.628906 356.175781 381.976563 325.394531 C 405.121094 317.859375 427.949219 337.203125 446.816406 333.203125 C 437.730469 321.34375 419.839844 316.910156 405.136719 309.777344 C 412.878906 307.195313 424.707031 308.0625 430.609375 303.921875 C 413.816406 272.453125 364.078125 276.859375 333.339844 259.019531 C 315.628906 248.738281 310.238281 231.570313 289.339844 227.785156 C 276.816406 250.417969 249.277344 260.386719 229.128906 276.59375 C 225.257813 283.945313 239.898438 285.480469 233.757813 288.304688 C 220.089844 294.996094 203.777344 299.46875 201.339844 315.636719 C 208.398438 321.371094 218.046875 308.457031 224.496094 313.683594 C 196.097656 339.199219 146.9375 347.21875 124.917969 378.105469 C 138.078125 376.148438 162.167969 373.113281 171.238281 374.203125 C 176.730469 416.105469 109.597656 413.214844 87.867188 438.625 C 97.15625 465.820313 135.417969 441.074219 152.707031 442.53125 C 148.328125 461.359375 120.738281 466.808594 101.757813 475.714844 C 81.847656 485.058594 56.476563 491.417969 50.808594 506.953125 C 96.289063 525.460938 128.109375 496.476563 168.917969 493.285156 C 148.117188 508.898438 102.71875 524.007813 65.207031 532.410156 C 66.878906 532.546875 65.289063 533.507813 57.398438 534.207031 C 56.910156 534.398438 56.335938 534.507813 55.71875 534.550781 C 50.628906 536.644531 44.867188 540.542969 41.609375 547.414063 C 89.339844 557.039063 176.796875 520.355469 210.609375 518.664063 C 221.25 518.132813 232.9375 531.074219 233.757813 538.1875 C 238.589844 579.707031 161.378906 579.480469 145.757813 614.324219 C 188.746094 610.28125 228.738281 574.1875 270.816406 577.230469 C 302.230469 579.503906 310.15625 605.300781 342.609375 610.417969 C 345.039063 602.398438 331.707031 597.632813 337.976563 592.851563 C 368.589844 594.039063 384.707031 616.789063 416.707031 610.417969 C 412.179688 596.433594 387.339844 590.773438 372.707031 573.328125 C 362.171875 560.753906 343.027344 519.628906 370.398438 512.808594 C 384.46875 509.300781 402.988281 519.316406 414.398438 520.617188 C 422.347656 521.523438 429.136719 520.015625 437.558594 520.617188 C 482.667969 523.847656 512.429688 551.535156 555.667969 544.042969 C 539.160156 511.757813 496.109375 501.839844 458.398438 487.429688 "/>
</g>
</svg>
